<svg xmlns="http://www.w3.org/2000/svg" width="121.144" height="72.2" viewBox="0 0 121.144 72.2">
  <g id="Groupe_613" data-name="Groupe 613" transform="translate(-117.69 -99.4)">
    <path id="Tracé_110" data-name="Tracé 110" d="M152.063,154.834l-5.891-17.43H130.2l-6.212,17.43h6.051v1.533H117.69v-1.533h3.793L142.058,99.4h6.62l20.329,55.434h3.712v1.533H146.334v-1.533Zm-13.556-40.346-7.588,21.141h14.608Z" transform="translate(0)" fill="#3f4e3e"/>
    <path id="Tracé_111" data-name="Tracé 111" d="M795.09,312.19h12.551v37.486h2.868v.922H795.295v-.922h2.816V313.112H795.09Z" transform="translate(-618.32 -194.232)" fill="#3f4e3e"/>
    <path id="Tracé_112" data-name="Tracé 112" d="M980.63,336.408h12.546v23.455h2.869v.922H980.837v-.922h2.816V337.33H980.63Zm7.732-3.533a4.777,4.777,0,0,1-3.866-1.383,5.18,5.18,0,0,1-1.152-3.43,4.734,4.734,0,0,1,1.254-3.38,5,5,0,0,1,3.816-1.331,5.623,5.623,0,0,1,3.892,1.2,4.39,4.39,0,0,1,1.332,3.431,4.92,4.92,0,0,1-1.28,3.559A5.319,5.319,0,0,1,988.362,332.875Z" transform="translate(-787.679 -204.418)" fill="#3f4e3e"/>
    <path id="Tracé_113" data-name="Tracé 113" d="M1176.154,482.339l6.042-8.347h-3.687v-.922h7.63v.922h-2.663l-6.657,9.419,8.347,13.114h2.663v.922h-17.1v-.922h3.636l-5.633-9.219-5.837,9.219h3.38v.922h-8.04v-.922h3.38l6.5-10.242-7.783-12.29h-2.97v-.923h17.309v.922h-3.584Z" transform="translate(-948.995 -341.08)" fill="#3f4e3e"/>
    <path id="Tracé_114" data-name="Tracé 114" d="M1101.243,810.15h1.926c.294-1.715-1.008-6.418,1.668-6.552,2.685.247,1.293,4.908,1.624,6.552h1.927c-.217-2.06.6-5.271-.738-7.2a3.165,3.165,0,0,0-4.622-.145v-.7h-1.781Zm-7.642-4.71c.785-2.663,3.93-2.456,4.448,0Zm6.306,1.55c1.343-6.007-8.222-7.179-8.275-.839-.223,4.682,6.884,5.756,8.13,1.463h-2.029c-.77,1.874-4.067.761-4.074-.624Zm-11.231-.887c.112,3.36-4.818,3.246-4.743.059-.227-2.971,4.716-3.7,4.743-.059m1.824-4h-1.766v1.016h-.029c-1.594-2.516-7.116-.915-6.7,2.957a3.907,3.907,0,0,0,6.726,3.074v1h1.766Zm-11.451,5.058c-1.683,2.553-6.437,1.052-6.262-2.392a3.557,3.557,0,0,1,6.367-2.29h2.261c-2.554-5.641-10.7-3.314-10.609,2.261-.2,5.711,8.266,7.833,10.553,2.421Z" transform="translate(-869.985 -638.797)" fill="#da9d79"/>
  </g>
</svg>
