<svg id="noun_Quote_1062171" xmlns="http://www.w3.org/2000/svg" width="22.033" height="14.279" viewBox="0 0 22.033 14.279">
  <path id="Tracé_80" data-name="Tracé 80" d="M32.024,39.857c0-2.786,4.253-7.259,5.682-8.8a1.406,1.406,0,0,1,2.016-.037l.037.037a1.409,1.409,0,0,1,.037,1.906,20.987,20.987,0,0,0-1.686,1.98,5.106,5.106,0,0,1,3.923,4.912,5.03,5.03,0,0,1-5.022,5.022A4.976,4.976,0,0,1,32.024,39.857Zm-6.965,5.022a5.02,5.02,0,0,0,1.026-9.935c.55-.7,1.1-1.356,1.686-1.98a1.373,1.373,0,0,0-.037-1.906l-.037-.037a1.376,1.376,0,0,0-2.016.037c-1.43,1.5-5.682,6.012-5.682,8.8A5.061,5.061,0,0,0,25.059,44.879Z" transform="translate(-20 -30.6)" fill="#3f4e3e"/>
</svg>
