<svg xmlns="http://www.w3.org/2000/svg" width="171.318" height="71.363" viewBox="0 0 171.318 71.363"><defs><style>.a{fill:#4d535c;}.b{fill:#f1d7a1;}</style></defs><g transform="translate(-702.785 -260.787)"><g transform="translate(836.168 321.083)"><g transform="translate(0 0)"><path class="a" d="M1000.373,399.416c-1.7,2.531-6.487,1.043-6.311-2.372a3.59,3.59,0,0,1,6.412-2.271h2.279c-2.573-5.593-10.784-3.285-10.691,2.243-.2,5.662,8.331,7.766,10.633,2.4Zm11.541-5.016h-1.78v1h-.029c-1.607-2.495-7.171-.907-6.75,2.933a3.942,3.942,0,0,0,6.779,3.048v.99h1.78Zm-1.838,3.965c.113,3.332-4.855,3.218-4.779.059-.229-2.945,4.753-3.667,4.779-.059m11.319.877c1.353-5.957-8.286-7.118-8.339-.832-.225,4.642,6.937,5.706,8.194,1.451H1019.2c-.776,1.858-4.1.753-4.106-.618Zm-6.355-1.536c.8-2.64,3.96-2.436,4.486,0Zm7.7,4.669h1.941c.3-1.7-1.016-6.364,1.68-6.5,2.706.245,1.3,4.866,1.637,6.5h1.941c-.219-2.043.606-5.227-.744-7.143a3.229,3.229,0,0,0-4.662-.143V394.4h-1.795Z" transform="translate(-992.06 -391.553)"/></g></g><path class="b" d="M730.2,296.469H715.818l7.47-20.821ZM731,315.383v1.51h25.987v-1.51h-3.656l-20.027-54.6h-6.517l-20.265,54.6h-3.735v1.51h12.159v-1.51h-5.96l6.119-17.166h15.735l5.8,17.166Z"/><g transform="translate(756.293 281.566)"><g transform="translate(0)"><path class="b" d="M923.6,325.46a14.115,14.115,0,0,1,.626-5.03,2.06,2.06,0,0,1,1.947-1.46,1.737,1.737,0,0,1,1.761,1.368,19.579,19.579,0,0,1,.441,5.122v2.272H923.6Zm2.967,15.623q4.59,0,6.884-1.855a9.585,9.585,0,0,0,3.176-5.192l-.835-.139q-1.669,5.749-7.046,5.749a4.129,4.129,0,0,1-4.033-2.318,15.847,15.847,0,0,1-1.159-6.861v-1.808h13.073q.416-10.57-10.107-10.57a12.568,12.568,0,0,0-8.553,2.921q-3.361,2.92-3.36,8.414t2.99,8.576q2.99,3.083,8.97,3.083m-40.748-34.4h2.549v33.1h-2.549v.835h13.165v-.835h-1.993V326.99a9.232,9.232,0,0,1,1.136-4.729q1.135-1.947,2.619-1.947a1.351,1.351,0,0,1,1.345.811,10.727,10.727,0,0,1,.371,3.593v15.066h-1.9v.835h13.119v-.835h-2.6V325.831q0-7.742-7.185-7.742a7.033,7.033,0,0,0-4.636,1.3,7.7,7.7,0,0,0-2.272,3.431V305.851H885.816Zm-13.907,32.868a9.684,9.684,0,0,0,5.888,1.53q3.847,0,5.516-1.878a9,9,0,0,0,2.04-5.076l-.788-.093a8.062,8.062,0,0,1-1.368,3.8,3.007,3.007,0,0,1-2.434,1.391,1.783,1.783,0,0,1-1.831-1.019,8.584,8.584,0,0,1-.441-3.2V319.387h6.027v-.835h-6.027V310.44l-8.622,2.133v5.98H867.32v.835h2.549v14.6q0,4.033,2.04,5.563m-19.841-4.126v-.741q0-4.218,2.874-4.219h.325v4.311a7.066,7.066,0,0,1-.626,3.268q-.627,1.182-1.344,1.182a.961.961,0,0,1-.974-.7,11.474,11.474,0,0,1-.255-3.106m-6.188-4.474a4.541,4.541,0,0,0-2.619,4.52q0,5.609,6.862,5.609a6.178,6.178,0,0,0,3.523-.835,4.991,4.991,0,0,0,1.808-2.6q.834,3.431,6.4,3.431,3.06,0,4.4-1.53t1.529-5.609l-.695-.047q-.278,4.776-1.855,4.775-1.345,0-1.344-2.411v-9.41q0-5.007-2.109-6.884t-7.625-1.878q-9.69,0-9.689,5.7,0,3.848,3.987,3.848a4.317,4.317,0,0,0,2.92-1,3.026,3.026,0,0,0,1.159-2.364,6.588,6.588,0,0,0-.371-2.341H851a4.659,4.659,0,0,1-.278-1.553,1.369,1.369,0,0,1,.672-1.205,2.684,2.684,0,0,1,1.506-.441,1.881,1.881,0,0,1,1.878,1.507,23.054,23.054,0,0,1,.486,5.911v3.569h-1.344q-5.424,0-8.043,1.228m-16.8-10.848a1.767,1.767,0,0,1,1.645-1.182,1.6,1.6,0,0,1,1.553,1.136,15.3,15.3,0,0,1,.463,4.752v2.271a13.068,13.068,0,0,1-.486,4.474,1.635,1.635,0,0,1-1.576,1.09,1.721,1.721,0,0,1-1.623-1.113,11.125,11.125,0,0,1-.534-4.219v-2.5a12.913,12.913,0,0,1,.557-4.706m10.083-2.179a2.972,2.972,0,0,0,1.947.626,2.877,2.877,0,0,0,2.016-.765,3.025,3.025,0,0,0,.835-2.341,3.111,3.111,0,0,0-1.043-2.48,4.063,4.063,0,0,0-2.758-.9,4.734,4.734,0,0,0-3.106,1.159,4.627,4.627,0,0,0-1.391,3.755,10.557,10.557,0,0,0,.278,2.271,10.647,10.647,0,0,0-5.146-1.159q-5.007,0-7.509,2.133a7.009,7.009,0,0,0-2.5,5.609q0,5.517,5.377,7.046a21.129,21.129,0,0,0-4.126,3.036,4.287,4.287,0,0,0-1.159,3.059,3.764,3.764,0,0,0,1.622,3.083q1.623,1.252,5.378,1.252h4.5q3.522,0,4.7.672a2.8,2.8,0,0,1,1.182,2.666,3.958,3.958,0,0,1-1.947,3.337,9.731,9.731,0,0,1-5.563,1.345q-5.934,0-5.933-3.987a9.543,9.543,0,0,1,.371-2.55L822.4,343.54q-3.569,1.019-3.569,3.709,0,4.96,11.45,4.96,6.721,0,9.9-2.388a7.668,7.668,0,0,0,3.176-6.467q0-7.555-10.524-7.556H828.1q-2.968,0-2.967-.649t2.04-1.947a19.991,19.991,0,0,0,3.755.371,10.75,10.75,0,0,0,6.907-2.04,6.918,6.918,0,0,0,2.549-5.725,7.06,7.06,0,0,0-3.523-6.05,13.992,13.992,0,0,1-.324-2.781q0-3.06,1.993-3.06,1.392,0,1.113,1.437l-1.3.788a2.3,2.3,0,0,0,.812,1.785" transform="translate(-818.83 -305.851)"/></g></g></g></svg>