<svg xmlns="http://www.w3.org/2000/svg" xmlns:xlink="http://www.w3.org/1999/xlink" width="173.44" height="72.2" viewBox="0 0 173.44 72.2">
  <defs>
    <clipPath id="clip-path">
      <rect id="Rectangle_162" data-name="Rectangle 162" width="173.44" height="72.2" transform="translate(0 0)" fill="#437b74"/>
    </clipPath>
  </defs>
  <g id="Groupe_618" data-name="Groupe 618" transform="translate(-55.06 -106.32)">
    <g id="Groupe_de_masques_617" data-name="Groupe de masques 617" transform="translate(55.06 106.32)" clip-path="url(#clip-path)">
      <g id="Groupe_616" data-name="Groupe 616" transform="translate(0 0.001)">
        <path id="Tracé_115" data-name="Tracé 115" d="M709.073,114.392a5.817,5.817,0,0,1,.257-2.068.844.844,0,0,1,.8-.6.712.712,0,0,1,.724.563,8.2,8.2,0,0,1,.185,2.105v.934h-1.966Zm1.219,6.422a4.434,4.434,0,0,0,2.83-.763,3.946,3.946,0,0,0,1.305-2.132l-.343-.057a2.847,2.847,0,0,1-2.9,2.363,1.7,1.7,0,0,1-1.658-.953,6.474,6.474,0,0,1-.475-2.82v-.742h5.377q.171-4.345-4.155-4.345a5.157,5.157,0,0,0-3.515,1.205,4.339,4.339,0,0,0-1.382,3.46,4.844,4.844,0,0,0,1.229,3.523,4.929,4.929,0,0,0,3.688,1.268m-7.966-8.195a2.125,2.125,0,0,1-.133.686h-.628a2.529,2.529,0,0,0-.093.686,1.484,1.484,0,0,0,.457,1.181,1.769,1.769,0,0,0,1.205.4,1.541,1.541,0,0,0,1.182-.457,2.071,2.071,0,0,0,.429-1.449,1.974,1.974,0,0,0-.9-1.647,4.351,4.351,0,0,0-2.6-.658,5.316,5.316,0,0,0-3.744,1.238,4.572,4.572,0,0,0-1.344,3.536,4.751,4.751,0,0,0,1.181,3.487,4.569,4.569,0,0,0,3.393,1.191,4.459,4.459,0,0,0,2.724-.742,3.846,3.846,0,0,0,1.334-2.363l-.343-.038a3.665,3.665,0,0,1-.857,1.734,2.261,2.261,0,0,1-1.791.762,1.575,1.575,0,0,1-1.544-.819,6.343,6.343,0,0,1-.42-2.705v-.992a9,9,0,0,1,.362-3.029,1.248,1.248,0,0,1,1.205-.915.808.808,0,0,1,.914.915m-17.95-.724h1.047v8.385h-1.047v.343h5.412v-.343h-.82V115.02a3.836,3.836,0,0,1,.464-1.947q.463-.8,1.076-.8a.556.556,0,0,1,.556.333,4.414,4.414,0,0,1,.153,1.478v6.193h-.781v.343h5.392v-.343h-1.067v-5.731q0-3.182-2.953-3.182a2.891,2.891,0,0,0-1.906.534,3.164,3.164,0,0,0-.934,1.41v-1.756h-4.592Zm-6.078,2.5a5.817,5.817,0,0,1,.257-2.068.845.845,0,0,1,.8-.6.713.713,0,0,1,.723.563,8.132,8.132,0,0,1,.185,2.105v.924H678.3Zm1.219,6.422a4.434,4.434,0,0,0,2.83-.763,3.946,3.946,0,0,0,1.305-2.132l-.343-.057a2.847,2.847,0,0,1-2.9,2.363,1.7,1.7,0,0,1-1.658-.953,6.519,6.519,0,0,1-.476-2.82v-.742h5.377q.171-4.345-4.154-4.345a5.16,5.16,0,0,0-3.516,1.205,4.333,4.333,0,0,0-1.381,3.46,4.846,4.846,0,0,0,1.228,3.523,4.928,4.928,0,0,0,3.688,1.268m-5.506-.191V120.3h-.934V106.331h-4.768v.344h1.162v5.62a2.33,2.33,0,0,0-2.21-.933q-3.772,0-3.773,4.745a5.735,5.735,0,0,0,.9,3.523,3.028,3.028,0,0,0,2.544,1.182,2.564,2.564,0,0,0,2.63-1.525l.21,1.334Zm-6.845-3.96v-.991a12.742,12.742,0,0,1,.229-2.935q.229-.838.857-.839a1.036,1.036,0,0,1,.953.572,2.781,2.781,0,0,1,.324,1.391v4.154a2.257,2.257,0,0,1-.41,1.467,1.227,1.227,0,0,1-.971.5.792.792,0,0,1-.772-.657,10.713,10.713,0,0,1-.209-2.657m-9.986-4.783h1.125v8.385h-1.048v.343h5.659v-.343h-1.067v-8.728h-4.669Zm4.364-2.153a1.834,1.834,0,0,0,.477-1.324,1.631,1.631,0,0,0-.5-1.277,2.1,2.1,0,0,0-1.449-.448,1.864,1.864,0,0,0-1.419.5,1.762,1.762,0,0,0-.464,1.258,1.931,1.931,0,0,0,.425,1.28,1.788,1.788,0,0,0,1.44.514,1.965,1.965,0,0,0,1.483-.5m-11.888,11.069q.4-.705.819-.705a.741.741,0,0,1,.362.152,5.057,5.057,0,0,0,2.286.556,3.829,3.829,0,0,0,2.611-.834,3.06,3.06,0,0,0,.951-2.437,2.633,2.633,0,0,0-1.049-2.334,6.293,6.293,0,0,0-1.083-.581,14.518,14.518,0,0,0-1.867-.563,2.656,2.656,0,0,1-.352-.093c-.159-.05-.278-.093-.353-.123s-.171-.076-.286-.133a.971.971,0,0,1-.247-.162,3,3,0,0,1-.21-.238.682.682,0,0,1-.134-.448.943.943,0,0,1,.438-.791,2.282,2.282,0,0,1,1.333-.313q2.04,0,3.011,2.477h.229v-2.919h-.21a2.159,2.159,0,0,1-.323.5.44.44,0,0,1-.323.132,1.576,1.576,0,0,1-.556-.153,4.746,4.746,0,0,0-1.925-.438,3.353,3.353,0,0,0-2.438.886,3.158,3.158,0,0,0-.916,2.372,2.413,2.413,0,0,0,1.048,2.173,7.427,7.427,0,0,0,2.172.914,6.415,6.415,0,0,1,1.906.649.863.863,0,0,1,.477.8q0,1.239-1.947,1.238a3.261,3.261,0,0,1-2.1-.667,4.54,4.54,0,0,1-1.328-2.324h-.229v3.412Zm-6.707-10.482,2.553-2.115a1.357,1.357,0,0,0,.556-.963.943.943,0,0,0-.314-.742.975.975,0,0,0-.906-.142l-.895.185L642.74,110.2Zm0,4.993v-.934a5.815,5.815,0,0,1,.257-2.068.845.845,0,0,1,.8-.6.714.714,0,0,1,.724.563,8.08,8.08,0,0,1,.185,2.105v.934Zm1.223,5.489a4.432,4.432,0,0,0,2.829-.763,3.95,3.95,0,0,0,1.306-2.132l-.343-.057a2.848,2.848,0,0,1-2.9,2.363,1.7,1.7,0,0,1-1.658-.953,6.538,6.538,0,0,1-.477-2.82v-.742h5.377q.171-4.345-4.155-4.345a5.157,5.157,0,0,0-3.515,1.205,4.337,4.337,0,0,0-1.381,3.46,4.846,4.846,0,0,0,1.228,3.523,4.9,4.9,0,0,0,3.685,1.262m-12.793-13.168a2.26,2.26,0,0,1,1.61.486,2.831,2.831,0,0,1,.505,1.991v.556a3.539,3.539,0,0,1-.525,2.172,1.924,1.924,0,0,1-1.609.667h-.61v-5.873Zm1.4,6.726a3.332,3.332,0,0,1,.278,1.563v1.391a4.238,4.238,0,0,0,.657,2.753,3.934,3.934,0,0,0,4.307.178,4.054,4.054,0,0,0,.733-2.173l-.324-.037a4.219,4.219,0,0,1-.371,1.324.616.616,0,0,1-.543.315.434.434,0,0,1-.448-.344,5.519,5.519,0,0,1-.1-1.333V117a3.613,3.613,0,0,0-.61-2.363,3.372,3.372,0,0,0-2.153-.915v-.057a4.169,4.169,0,0,0,2.439-.828,2.935,2.935,0,0,0,.8-2.318,2.869,2.869,0,0,0-.915-2.363,3.646,3.646,0,0,0-1.458-.619,16.523,16.523,0,0,0-3.515-.258H625.8v.362h1.239v12.62H625.8v.362h6.193v-.362h-1.238v-6.383h1.009a1.066,1.066,0,0,1,1.02.5" transform="translate(-572.892 -106.327)" fill="#80c8c0"/>
        <path id="Tracé_116" data-name="Tracé 116" d="M1644.694,122.477q.395-.7.809-.7a.728.728,0,0,1,.358.151,5,5,0,0,0,2.258.546,3.8,3.8,0,0,0,2.581-.819,3.023,3.023,0,0,0,.942-2.41,2.606,2.606,0,0,0-1.036-2.307,6.262,6.262,0,0,0-1.073-.575,14.683,14.683,0,0,0-1.847-.556,2.626,2.626,0,0,1-.349-.093c-.157-.05-.272-.093-.349-.122a2.939,2.939,0,0,1-.278-.133.944.944,0,0,1-.245-.159c-.051-.05-.12-.129-.208-.235a.675.675,0,0,1-.131-.443.931.931,0,0,1,.433-.781,2.274,2.274,0,0,1,1.319-.311q2.015,0,2.976,2.449h.226V113.1h-.207a2.192,2.192,0,0,1-.321.489.435.435,0,0,1-.32.132,1.567,1.567,0,0,1-.546-.15,4.686,4.686,0,0,0-1.9-.433,3.316,3.316,0,0,0-2.41.875,3.117,3.117,0,0,0-.9,2.345,2.379,2.379,0,0,0,1.035,2.147,7.385,7.385,0,0,0,2.148.9,6.389,6.389,0,0,1,1.884.641.853.853,0,0,1,.471.791q0,1.225-1.921,1.225a3.223,3.223,0,0,1-2.073-.659,4.523,4.523,0,0,1-1.318-2.3h-.226v3.372Zm-6.443-6.348a5.744,5.744,0,0,1,.254-2.044.837.837,0,0,1,.792-.593.706.706,0,0,1,.716.556,7.913,7.913,0,0,1,.179,2.082v.927h-1.94Zm1.205,6.348a4.388,4.388,0,0,0,2.8-.753,3.9,3.9,0,0,0,1.29-2.111l-.339-.056a2.811,2.811,0,0,1-2.862,2.335,1.678,1.678,0,0,1-1.639-.942,6.462,6.462,0,0,1-.471-2.788v-.734h5.312q.17-4.3-4.107-4.295a5.11,5.11,0,0,0-3.475,1.187,4.281,4.281,0,0,0-1.365,3.419,4.8,4.8,0,0,0,1.214,3.485,4.861,4.861,0,0,0,3.646,1.252m-5.444-.185v-.339h-.927V108.16h-4.709v.339h1.149v5.562a2.311,2.311,0,0,0-2.185-.927q-3.729,0-3.729,4.69a5.677,5.677,0,0,0,.895,3.485,2.988,2.988,0,0,0,2.515,1.168,2.528,2.528,0,0,0,2.6-1.506l.208,1.318Zm-6.762-3.9v-.983a12.6,12.6,0,0,1,.226-2.9q.226-.829.847-.834a1.019,1.019,0,0,1,.942.565,2.751,2.751,0,0,1,.321,1.375v4.107a2.227,2.227,0,0,1-.406,1.451,1.211,1.211,0,0,1-.96.489.785.785,0,0,1-.763-.649,10.481,10.481,0,0,1-.207-2.627" transform="translate(-1478.204 -107.99)" fill="#80c8c0"/>
        <path id="Tracé_117" data-name="Tracé 117" d="M74.985,108.077h1.832q5.728,0,8.857,1.721,6.567,3.6,6.568,21.193v4.536q0,13.138-3.321,18.726t-11.031,5.592h-2.9Zm25.652,4.653q-7.33-6.14-21.988-6.14H55.06v1.483H60.1v51.775H55.06v1.483H76.667q14.276,0,22.445-5.866,8.857-6.334,8.857-22.445,0-14.153-7.329-20.294" transform="translate(-55.06 -106.566)" fill="#80c8c0"/>
        <path id="Tracé_118" data-name="Tracé 118" d="M727.292,447.015q1.083-1.908,2.217-1.909a1.989,1.989,0,0,1,.98.412,13.694,13.694,0,0,0,6.19,1.5,10.4,10.4,0,0,0,7.066-2.243q2.579-2.243,2.576-6.6t-2.837-6.318a17.324,17.324,0,0,0-2.94-1.576,39.642,39.642,0,0,0-5.055-1.521,7.46,7.46,0,0,1-.954-.258c-.43-.136-.748-.249-.955-.336s-.464-.206-.773-.361a2.625,2.625,0,0,1-.671-.438q-.206-.206-.567-.649a1.848,1.848,0,0,1-.36-1.212,2.55,2.55,0,0,1,1.186-2.14,6.2,6.2,0,0,1,3.61-.851q5.519,0,8.149,6.705h.619V421.33h-.567a6.031,6.031,0,0,1-.877,1.34,1.194,1.194,0,0,1-.877.362,4.269,4.269,0,0,1-1.5-.413,12.824,12.824,0,0,0-5.21-1.186,9.083,9.083,0,0,0-6.6,2.4,8.532,8.532,0,0,0-2.476,6.421,6.518,6.518,0,0,0,2.837,5.88,20.2,20.2,0,0,0,5.879,2.475,17.362,17.362,0,0,1,5.159,1.753,2.341,2.341,0,0,1,1.289,2.166q0,3.354-5.26,3.353a8.824,8.824,0,0,1-5.674-1.806q-2.268-1.806-3.61-6.292h-.619v9.232Zm-17.639-17.381a15.7,15.7,0,0,1,.7-5.6,2.3,2.3,0,0,1,2.166-1.626,1.931,1.931,0,0,1,1.96,1.521,21.813,21.813,0,0,1,.49,5.7v2.527h-5.313Zm3.3,17.381q5.106,0,7.659-2.064a10.665,10.665,0,0,0,3.533-5.776l-.927-.155q-1.854,6.4-7.84,6.4a4.6,4.6,0,0,1-4.488-2.579q-1.289-2.579-1.29-7.633v-2.012h14.545q.463-11.759-11.244-11.759a13.982,13.982,0,0,0-9.516,3.249q-3.739,3.249-3.739,9.363t3.326,9.541q3.326,3.43,9.98,3.43M653.59,422.875h2.837v22.7H653.59v.927h14.286v-.927h-1.854V431.335a11.048,11.048,0,0,1,1.161-5.235q1.161-2.192,2.6-2.192a1.118,1.118,0,0,1,.825.31q.67.67.671,4.591V445.57h-1.811v.927h13.256v-.927h-1.854V431.026a10.3,10.3,0,0,1,1.135-5.106q1.135-2.012,2.631-2.012a1.119,1.119,0,0,1,.825.31q.668.67.67,4.591V445.57h-1.8v.927h14.287v-.927h-2.89V430.046q0-8.613-7.581-8.613-5.776,0-7.581,5.57-1.239-5.572-7.045-5.57t-7.509,5.26v-4.744H653.59Zm-18,17.847V439.9q0-4.693,3.2-4.693h.361V440a7.868,7.868,0,0,1-.7,3.636q-.7,1.318-1.5,1.315a1.069,1.069,0,0,1-1.084-.773,12.808,12.808,0,0,1-.284-3.456m-6.886-4.977a5.048,5.048,0,0,0-2.914,5.028q0,6.242,7.633,6.242a6.878,6.878,0,0,0,3.919-.927,5.564,5.564,0,0,0,2.013-2.888q.927,3.817,7.117,3.816,3.4,0,4.9-1.7t1.7-6.241l-.773-.052q-.311,5.314-2.064,5.313-1.5,0-1.5-2.682V431.18q0-5.57-2.346-7.659t-8.485-2.089q-10.779,0-10.778,6.344,0,4.281,4.436,4.281a4.779,4.779,0,0,0,3.245-1.112,3.391,3.391,0,0,0,1.289-2.631,7.33,7.33,0,0,0-.412-2.6H634.4a5.187,5.187,0,0,1-.31-1.722,1.524,1.524,0,0,1,.749-1.341,2.988,2.988,0,0,1,1.676-.489,2.09,2.09,0,0,1,2.089,1.676,25.621,25.621,0,0,1,.541,6.575v3.972h-1.5q-6.035,0-8.949,1.366" transform="translate(-572.883 -392.129)" fill="#80c8c0"/>
        <path id="Tracé_119" data-name="Tracé 119" d="M1555.405,776.534h1.9v-3.781a3.743,3.743,0,0,1,.343-1.991,1.632,1.632,0,0,1,1.3-.7c1.605,0,1.605,1.891,1.605,2.55v3.925h1.9v-4.3a4.475,4.475,0,0,0-.73-2.821,3.238,3.238,0,0,0-2.392-1.1,2.968,2.968,0,0,0-2.179.959v-.686H1555.4Zm-7.552-4.654a2.3,2.3,0,0,1,2.25-1.864,2.132,2.132,0,0,1,2.149,1.864Zm6.232,1.531a4.424,4.424,0,0,0,.115-.959,4.173,4.173,0,0,0-4.111-4.182,4.24,4.24,0,0,0-4.183,4.311,4.178,4.178,0,0,0,4.144,4.211h.052a4.125,4.125,0,0,0,3.839-2.764h-2.005a1.955,1.955,0,0,1-1.834,1.02,2.275,2.275,0,0,1-2.193-1.636Zm-11.1-.873a2.344,2.344,0,0,1-2.318,2.509,2.379,2.379,0,0,1-2.365-2.452,2.416,2.416,0,0,1,2.365-2.536,2.322,2.322,0,0,1,2.318,2.479m1.8-3.952h-1.746v1h-.028a3.4,3.4,0,0,0-2.637-1.274,4.019,4.019,0,0,0-3.986,4.2,3.842,3.842,0,0,0,6.648,3.038v.986h1.746Zm-11.318,5a3.485,3.485,0,0,1-2.665,1.332,3.692,3.692,0,0,1-3.523-3.7,3.493,3.493,0,0,1,6.289-2.264h2.235a5.448,5.448,0,0,0-5-3.237,5.519,5.519,0,0,0-5.485,5.469,5.586,5.586,0,0,0,5.529,5.562,5.382,5.382,0,0,0,4.9-3.164Z" transform="translate(-1389.026 -704.594)" fill="#171717"/>
      </g>
    </g>
  </g>
</svg>
