<svg id="noun_Arrow_2367821" xmlns="http://www.w3.org/2000/svg" width="15.68" height="10.246" viewBox="0 0 15.68 10.246">
  <g id="Groupe_241" data-name="Groupe 241" transform="translate(0 4.785)">
    <path id="Tracé_42" data-name="Tracé 42" d="M14.316,1.2H.6A.6.6,0,1,1,.6,0H14.316a.6.6,0,0,1,0,1.2Z" transform="translate(0)" fill="#337754"/>
  </g>
  <g id="Groupe_242" data-name="Groupe 242" transform="translate(10.1 0)">
    <path id="Tracé_43" data-name="Tracé 43" d="M.6,10.246A.6.6,0,0,1,.181,9.22L4.15,5.359.157,1A.6.6,0,1,1,1.039.194L5.423,4.979a.6.6,0,0,1-.024.832L1.015,10.077A.6.6,0,0,1,.6,10.246Z" transform="translate(0 0)" fill="#337754"/>
  </g>
</svg>
