<svg xmlns="http://www.w3.org/2000/svg" width="158.433" height="42.771" viewBox="0 0 158.433 42.771">
  <g id="Groupe_612" data-name="Groupe 612" transform="translate(-1074.331 -793.491)">
    <path id="Tracé_90" data-name="Tracé 90" d="M1119.03,820.488h.305c1.785,0,3.327-.686,3.327-2.773s-1.542-2.772-3.327-2.772h-.305Zm-.874-6.365h1.449c2.147,0,3.933,1.163,3.933,3.553,0,2.449-1.747,3.631-3.96,3.631h-1.421Z" transform="translate(31.765 14.955)" fill="#fff"/>
    <path id="Tracé_91" data-name="Tracé 91" d="M1123.665,814.123h3.764v.819h-2.891v2.011h2.808v.819h-2.808v2.715h2.891v.819h-3.764Z" transform="translate(35.758 14.955)" fill="#fff"/>
    <path id="Tracé_92" data-name="Tracé 92" d="M1132.669,820.488h2.128v.819h-3v-7.184h.873Z" transform="translate(41.652 14.955)" fill="#fff"/>
    <path id="Tracé_93" data-name="Tracé 93" d="M1136.843,814.33l-1.237,2.544-.519-.219,1.021-2.62Z" transform="translate(44.037 14.891)" fill="#fff"/>
    <path id="Tracé_94" data-name="Tracé 94" d="M1141.615,815.909l-1.245,2.906h2.491Zm-1.608,3.726-.8,1.8h-.94l3.346-7.489,3.346,7.489h-.938l-.8-1.8Z" transform="translate(46.344 14.826)" fill="#fff"/>
    <path id="Tracé_95" data-name="Tracé 95" d="M1145.2,820.506h.669c.809,0,1.656-.248,1.656-1.268s-1.006-1.219-1.785-1.219h-.54Zm0-3.2h.224c.826,0,1.506-.171,1.506-1.2,0-1.011-.669-1.182-1.487-1.182h-.243Zm-.873-3.182h.856c1.319,0,2.565.352,2.565,1.971a1.552,1.552,0,0,1-.754,1.363v.019a1.841,1.841,0,0,1,1.4,1.82c0,1.44-1.2,2.011-2.435,2.011h-1.635Z" transform="translate(50.735 14.955)" fill="#fff"/>
    <path id="Tracé_96" data-name="Tracé 96" d="M1149.967,820.506h.668c.809,0,1.654-.248,1.654-1.268s-1-1.219-1.784-1.219h-.538Zm0-3.2h.223c.826,0,1.506-.171,1.506-1.2,0-1.011-.669-1.182-1.489-1.182h-.24Zm-.874-3.182h.856c1.319,0,2.565.352,2.565,1.971a1.552,1.552,0,0,1-.754,1.363v.019a1.841,1.841,0,0,1,1.4,1.82c0,1.44-1.2,2.011-2.436,2.011h-1.635Z" transform="translate(54.189 14.955)" fill="#fff"/>
    <path id="Tracé_97" data-name="Tracé 97" d="M1156.816,815.909l-1.245,2.906h2.491Zm-1.608,3.726-.8,1.8h-.94l3.346-7.489,3.346,7.489h-.938l-.8-1.8Z" transform="translate(57.361 14.826)" fill="#fff"/>
    <path id="Tracé_98" data-name="Tracé 98" d="M1158.614,814.123h1l1.718,3.069,1.72-3.069h1l-2.286,4.059v3.125h-.874v-3.125Z" transform="translate(61.09 14.955)" fill="#fff"/>
    <path id="Tracé_99" data-name="Tracé 99" d="M1164,814.123h3.763v.819h-2.891v2.011h2.806v.819h-2.806v2.715h2.891v.819H1164Z" transform="translate(64.997 14.955)" fill="#fff"/>
    <path id="Tracé_100" data-name="Tracé 100" d="M1124.449,818.514h-4.671V804.145h-3.862V800.09h12.394v4.055h-3.861Z" transform="translate(30.142 4.783)" fill="#fff"/>
    <path id="Tracé_101" data-name="Tracé 101" d="M1130.019,804.146v3.079h5.267v4.057h-5.267v3.177h5.554v4.057h-10.225V800.089h10.225v4.057Z" transform="translate(36.978 4.783)" fill="#fff"/>
    <path id="Tracé_102" data-name="Tracé 102" d="M1142.734,805.784h-.048l-1.93,5.864h3.886Zm-3.265,9.53-1.24,3.2h-4.957l6.913-18.426h5.1l6.768,18.426h-4.981l-1.168-3.2Z" transform="translate(42.722 4.782)" fill="#fff"/>
    <path id="Tracé_103" data-name="Tracé 103" d="M1160.948,800.089V810.45c0,2.37-.095,4.716-1.884,6.5a9.675,9.675,0,0,1-11.917,0c-1.789-1.785-1.883-4.131-1.883-6.5V800.089h4.673v9.7c0,2.394.165,5.009,3.17,5.009s3.17-2.615,3.17-5.009v-9.7Z" transform="translate(51.414 4.782)" fill="#fff"/>
    <path id="Tracé_104" data-name="Tracé 104" d="M1156.363,800.089h5.744l2.742,4.766,2.741-4.766h5.744l-5.744,8.578,6.649,9.847h-5.625l-3.765-6.011-4.124,6.011h-5.649l7.03-9.847Z" transform="translate(58.526 4.783)" fill="#fff"/>
    <path id="Tracé_105" data-name="Tracé 105" d="M1088.125,806.478a5.026,5.026,0,0,0-4.1-2.028,4.8,4.8,0,0,0-4.79,5.107,4.722,4.722,0,0,0,4.862,5.011,5.325,5.325,0,0,0,4.027-1.956v5.742a12.916,12.916,0,0,1-4.124.855,9.866,9.866,0,0,1-6.744-2.711,9.12,9.12,0,0,1-2.884-6.965,9.778,9.778,0,0,1,2.644-6.744,9.626,9.626,0,0,1,6.841-2.982,10.731,10.731,0,0,1,4.267.93Z" transform="translate(0.03 4.577)" fill="#fff"/>
    <path id="Tracé_106" data-name="Tracé 106" d="M1075.04,798.735h1.728v.666h-2.437v-5.837h.709Z" transform="translate(0 0.053)" fill="#fff"/>
    <path id="Tracé_107" data-name="Tracé 107" d="M1077.383,793.563h3.058v.666h-2.349v1.633h2.282v.666h-2.282v2.206h2.349v.666h-3.058Z" transform="translate(2.212 0.053)" fill="#fff"/>
    <path id="Tracé_108" data-name="Tracé 108" d="M1083.3,794.723a.972.972,0,0,0-.914-.55.9.9,0,0,0-.95.83c0,.457.438.7.792.835l.409.164a1.826,1.826,0,0,1,1.411,1.758,1.793,1.793,0,0,1-3.579.185l.717-.155a1.077,1.077,0,1,0,2.153-.029c0-.628-.49-.9-.981-1.107l-.393-.171c-.648-.286-1.238-.666-1.238-1.478a1.568,1.568,0,0,1,1.677-1.511,1.616,1.616,0,0,1,1.464.883Z" transform="translate(4.451)" fill="#fff"/>
    <path id="Tracé_109" data-name="Tracé 109" d="M1097.746,836.128a20.97,20.97,0,0,1-6.941-15.734c0-11.317,8.245-20.791,20.015-20.791s20.015,9.474,20.015,20.791a20.976,20.976,0,0,1-6.94,15.734h8.317a27.185,27.185,0,0,0,4.874-15.734c0-14.725-11.9-26.792-26.266-26.792s-26.266,12.067-26.266,26.792a27.2,27.2,0,0,0,4.873,15.734Z" transform="translate(7.41 0.08)" fill="#fff"/>
  </g>
</svg>
