<svg xmlns="http://www.w3.org/2000/svg" width="11.748" height="17.978" viewBox="0 0 11.748 17.978">
  <g id="noun_Arrow_2367821" transform="translate(0 17.978) rotate(-90)">
    <g id="Groupe_241" data-name="Groupe 241" transform="translate(0 5.486)">
      <path id="Tracé_42" data-name="Tracé 42" d="M16.414,1.371H.685A.685.685,0,1,1,.685,0H16.414a.685.685,0,0,1,0,1.371Z" fill="#fff"/>
    </g>
    <g id="Groupe_242" data-name="Groupe 242" transform="translate(11.58 0)">
      <path id="Tracé_43" data-name="Tracé 43" d="M.686,11.748a.685.685,0,0,1-.478-1.177l4.55-4.427-4.577-5A.685.685,0,1,1,1.191.222L6.218,5.709a.685.685,0,0,1-.027.954l-5.027,4.89A.682.682,0,0,1,.686,11.748Z" transform="translate(0)" fill="#fff"/>
    </g>
  </g>
</svg>
